<mxfile host="app.diagrams.net" modified="2021-02-23T09:06:02.372Z" agent="5.0 (Windows NT 10.0; Win64; x64) AppleWebKit/537.36 (KHTML, like Gecko) Chrome/88.0.4324.182 Safari/537.36" etag="0szwDF6WAUK4nBx3Mc4E" version="14.4.2" type="github">
  <diagram id="R2lEEEUBdFMjLlhIrx00" name="Page-1">
    <mxGraphModel dx="4012" dy="4167" grid="1" gridSize="10" guides="1" tooltips="1" connect="1" arrows="1" fold="1" page="1" pageScale="1" pageWidth="2339" pageHeight="3300" math="0" shadow="0" extFonts="Permanent Marker^https://fonts.googleapis.com/css?family=Permanent+Marker">
      <root>
        <mxCell id="0" />
        <mxCell id="1" parent="0" />
        <mxCell id="0DTxfH7YHv4nTH2xqImf-212" value="" style="swimlane;childLayout=stackLayout;horizontal=1;startSize=30;horizontalStack=0;rounded=1;fontSize=14;fontStyle=0;strokeWidth=2;resizeParent=0;resizeLast=1;shadow=0;dashed=0;align=center;" parent="1" vertex="1">
          <mxGeometry x="-560" y="285" width="170" height="75" as="geometry" />
        </mxCell>
        <mxCell id="0DTxfH7YHv4nTH2xqImf-210" value="" style="rounded=1;whiteSpace=wrap;html=1;shadow=0;glass=0;sketch=0;strokeWidth=2;gradientColor=none;" parent="1" vertex="1">
          <mxGeometry x="-160" y="-392" width="180" height="140" as="geometry" />
        </mxCell>
        <mxCell id="0DTxfH7YHv4nTH2xqImf-197" value="" style="rounded=1;whiteSpace=wrap;html=1;shadow=0;glass=0;sketch=0;strokeWidth=2;gradientColor=none;" parent="1" vertex="1">
          <mxGeometry x="-260" y="540" width="180" height="120" as="geometry" />
        </mxCell>
        <mxCell id="0DTxfH7YHv4nTH2xqImf-157" value="" style="rounded=1;whiteSpace=wrap;html=1;shadow=0;glass=0;sketch=0;strokeWidth=2;gradientColor=none;" parent="1" vertex="1">
          <mxGeometry x="760" y="-230" width="190" height="140" as="geometry" />
        </mxCell>
        <mxCell id="0DTxfH7YHv4nTH2xqImf-151" value="" style="shape=rhombus;perimeter=rhombusPerimeter;whiteSpace=wrap;html=1;align=center;rounded=0;sketch=0;" parent="1" vertex="1">
          <mxGeometry x="470" y="-182.5" width="130" height="65" as="geometry" />
        </mxCell>
        <mxCell id="0DTxfH7YHv4nTH2xqImf-146" value="" style="shape=rhombus;perimeter=rhombusPerimeter;whiteSpace=wrap;html=1;align=center;rounded=0;sketch=0;" parent="1" vertex="1">
          <mxGeometry x="570" y="-125" width="130" height="65" as="geometry" />
        </mxCell>
        <mxCell id="0DTxfH7YHv4nTH2xqImf-142" value="" style="rounded=1;whiteSpace=wrap;html=1;shadow=0;glass=0;sketch=0;strokeWidth=2;gradientColor=none;" parent="1" vertex="1">
          <mxGeometry x="560" y="-390" width="190" height="160" as="geometry" />
        </mxCell>
        <mxCell id="0DTxfH7YHv4nTH2xqImf-130" value="" style="rounded=1;whiteSpace=wrap;html=1;shadow=0;glass=0;sketch=0;strokeWidth=2;gradientColor=none;" parent="1" vertex="1">
          <mxGeometry x="260" y="710" width="180" height="140" as="geometry" />
        </mxCell>
        <mxCell id="0DTxfH7YHv4nTH2xqImf-125" value="" style="rounded=1;whiteSpace=wrap;html=1;shadow=0;glass=0;sketch=0;strokeWidth=2;gradientColor=none;" parent="1" vertex="1">
          <mxGeometry x="-380" y="20" width="180" height="140" as="geometry" />
        </mxCell>
        <mxCell id="0DTxfH7YHv4nTH2xqImf-114" value="" style="rounded=1;whiteSpace=wrap;html=1;shadow=0;glass=0;sketch=0;strokeWidth=2;gradientColor=none;" parent="1" vertex="1">
          <mxGeometry x="345" y="-400" width="180" height="140" as="geometry" />
        </mxCell>
        <mxCell id="0DTxfH7YHv4nTH2xqImf-102" value="" style="rounded=0;whiteSpace=wrap;html=1;shadow=0;glass=0;sketch=0;strokeWidth=2;gradientColor=none;" parent="1" vertex="1">
          <mxGeometry x="30" y="30" width="610" height="170" as="geometry" />
        </mxCell>
        <mxCell id="0DTxfH7YHv4nTH2xqImf-88" value="" style="shape=rhombus;perimeter=rhombusPerimeter;whiteSpace=wrap;html=1;align=center;rounded=0;shadow=0;glass=0;sketch=0;strokeWidth=2;gradientColor=none;" parent="1" vertex="1">
          <mxGeometry x="720" y="180" width="145" height="80" as="geometry" />
        </mxCell>
        <mxCell id="0DTxfH7YHv4nTH2xqImf-86" value="" style="swimlane;childLayout=stackLayout;horizontal=1;startSize=30;horizontalStack=0;rounded=1;fontSize=14;fontStyle=0;strokeWidth=2;resizeParent=0;resizeLast=1;shadow=0;dashed=0;align=center;" parent="1" vertex="1">
          <mxGeometry x="450" y="50" width="180" height="140" as="geometry" />
        </mxCell>
        <mxCell id="0DTxfH7YHv4nTH2xqImf-82" value="" style="shape=rhombus;perimeter=rhombusPerimeter;whiteSpace=wrap;html=1;align=center;rounded=0;sketch=0;" parent="1" vertex="1">
          <mxGeometry x="63" y="329" width="136" height="61.25" as="geometry" />
        </mxCell>
        <mxCell id="0DTxfH7YHv4nTH2xqImf-80" value="" style="swimlane;childLayout=stackLayout;horizontal=1;startSize=30;horizontalStack=0;rounded=1;fontSize=14;fontStyle=0;strokeWidth=2;resizeParent=0;resizeLast=1;shadow=0;dashed=0;align=center;" parent="1" vertex="1">
          <mxGeometry x="44" y="424" width="170" height="86" as="geometry" />
        </mxCell>
        <mxCell id="0DTxfH7YHv4nTH2xqImf-77" value="" style="shape=rhombus;perimeter=rhombusPerimeter;whiteSpace=wrap;html=1;align=center;rounded=0;sketch=0;" parent="1" vertex="1">
          <mxGeometry x="445" y="337.5" width="130" height="65" as="geometry" />
        </mxCell>
        <mxCell id="0DTxfH7YHv4nTH2xqImf-75" value="" style="swimlane;childLayout=stackLayout;horizontal=1;startSize=30;horizontalStack=0;rounded=1;fontSize=14;fontStyle=0;strokeWidth=2;resizeParent=0;resizeLast=1;shadow=0;align=center;sketch=0;glass=0;" parent="1" vertex="1">
          <mxGeometry x="275" y="445" width="170" height="130" as="geometry" />
        </mxCell>
        <mxCell id="0DTxfH7YHv4nTH2xqImf-1" value="Course" style="swimlane;childLayout=stackLayout;horizontal=1;startSize=30;horizontalStack=0;rounded=1;fontSize=14;fontStyle=0;strokeWidth=2;resizeParent=0;resizeLast=1;shadow=0;dashed=0;align=center;" parent="1" vertex="1">
          <mxGeometry x="460" y="60" width="160" height="120" as="geometry" />
        </mxCell>
        <mxCell id="0DTxfH7YHv4nTH2xqImf-2" value="+ID&#xa;+title&#xa;+description&#xa;+thumbnail&#xa;+category" style="align=left;strokeColor=none;fillColor=none;spacingLeft=4;fontSize=12;verticalAlign=top;resizable=0;rotatable=0;part=1;" parent="0DTxfH7YHv4nTH2xqImf-1" vertex="1">
          <mxGeometry y="30" width="160" height="90" as="geometry" />
        </mxCell>
        <mxCell id="0DTxfH7YHv4nTH2xqImf-3" value="User" style="swimlane;childLayout=stackLayout;horizontal=1;startSize=30;horizontalStack=0;rounded=1;fontSize=14;fontStyle=0;strokeWidth=2;resizeParent=0;resizeLast=1;shadow=0;dashed=0;align=center;" parent="1" vertex="1">
          <mxGeometry x="50" y="60" width="160" height="120" as="geometry" />
        </mxCell>
        <mxCell id="0DTxfH7YHv4nTH2xqImf-4" value="+ID&#xa;+photo&#xa;+isCoursesVisible" style="align=left;strokeColor=none;fillColor=none;spacingLeft=4;fontSize=12;verticalAlign=top;resizable=0;rotatable=0;part=1;" parent="0DTxfH7YHv4nTH2xqImf-3" vertex="1">
          <mxGeometry y="30" width="160" height="90" as="geometry" />
        </mxCell>
        <mxCell id="0DTxfH7YHv4nTH2xqImf-5" value="Wishlist" style="swimlane;childLayout=stackLayout;horizontal=1;startSize=30;horizontalStack=0;rounded=1;fontSize=14;fontStyle=0;strokeWidth=2;resizeParent=0;resizeLast=1;shadow=0;dashed=0;align=center;" parent="1" vertex="1">
          <mxGeometry x="50" y="430" width="160" height="70" as="geometry" />
        </mxCell>
        <mxCell id="0DTxfH7YHv4nTH2xqImf-6" value="+ID&#xa;+name" style="align=left;strokeColor=none;fillColor=none;spacingLeft=4;fontSize=12;verticalAlign=top;resizable=0;rotatable=0;part=1;" parent="0DTxfH7YHv4nTH2xqImf-5" vertex="1">
          <mxGeometry y="30" width="160" height="40" as="geometry" />
        </mxCell>
        <mxCell id="0DTxfH7YHv4nTH2xqImf-8" value="Creator" style="swimlane;childLayout=stackLayout;horizontal=1;startSize=30;horizontalStack=0;rounded=1;fontSize=14;fontStyle=0;strokeWidth=2;resizeParent=0;resizeLast=1;shadow=0;dashed=0;align=center;" parent="1" vertex="1">
          <mxGeometry x="680" y="20" width="160" height="130" as="geometry" />
        </mxCell>
        <mxCell id="0DTxfH7YHv4nTH2xqImf-9" value="+ID&#xa;+photo&#xa;+about&#xa;+website&#xa;+linkedin&#xa;+youtube" style="align=left;strokeColor=none;fillColor=none;spacingLeft=4;fontSize=12;verticalAlign=top;resizable=0;rotatable=0;part=1;" parent="0DTxfH7YHv4nTH2xqImf-8" vertex="1">
          <mxGeometry y="30" width="160" height="100" as="geometry" />
        </mxCell>
        <mxCell id="0DTxfH7YHv4nTH2xqImf-165" style="edgeStyle=orthogonalEdgeStyle;rounded=0;orthogonalLoop=1;jettySize=auto;html=1;exitX=0.25;exitY=0;exitDx=0;exitDy=0;entryX=0.5;entryY=0;entryDx=0;entryDy=0;endArrow=block;endFill=0;" parent="1" source="0DTxfH7YHv4nTH2xqImf-10" target="0DTxfH7YHv4nTH2xqImf-161" edge="1">
          <mxGeometry relative="1" as="geometry">
            <Array as="points">
              <mxPoint x="300" y="-420" />
              <mxPoint x="1060" y="-420" />
            </Array>
          </mxGeometry>
        </mxCell>
        <mxCell id="0DTxfH7YHv4nTH2xqImf-10" value="Admin" style="swimlane;childLayout=stackLayout;horizontal=1;startSize=30;horizontalStack=0;rounded=1;fontSize=14;fontStyle=0;strokeWidth=2;resizeParent=0;resizeLast=1;shadow=0;dashed=0;align=center;" parent="1" vertex="1">
          <mxGeometry x="260" y="-205" width="160" height="50" as="geometry" />
        </mxCell>
        <mxCell id="0DTxfH7YHv4nTH2xqImf-13" value="Announcement" style="swimlane;childLayout=stackLayout;horizontal=1;startSize=30;horizontalStack=0;rounded=1;fontSize=14;fontStyle=0;strokeWidth=2;resizeParent=0;resizeLast=1;shadow=0;dashed=0;align=center;" parent="1" vertex="1">
          <mxGeometry x="355" y="-390" width="160" height="120" as="geometry" />
        </mxCell>
        <mxCell id="0DTxfH7YHv4nTH2xqImf-14" value="+ID&#xa;+title&#xa;+content&#xa;+date" style="align=left;strokeColor=none;fillColor=none;spacingLeft=4;fontSize=12;verticalAlign=top;resizable=0;rotatable=0;part=1;" parent="0DTxfH7YHv4nTH2xqImf-13" vertex="1">
          <mxGeometry y="30" width="160" height="90" as="geometry" />
        </mxCell>
        <mxCell id="0DTxfH7YHv4nTH2xqImf-16" value="Lecture" style="swimlane;childLayout=stackLayout;horizontal=1;startSize=30;horizontalStack=0;rounded=1;fontSize=14;fontStyle=0;strokeWidth=2;resizeParent=0;resizeLast=1;shadow=0;align=center;sketch=0;glass=0;" parent="1" vertex="1">
          <mxGeometry x="280" y="450" width="160" height="120" as="geometry" />
        </mxCell>
        <mxCell id="0DTxfH7YHv4nTH2xqImf-17" value="+ID&#xa;+chapterName&#xa;+title&#xa;+date&#xa;+isVisible" style="align=left;strokeColor=none;fillColor=none;spacingLeft=4;fontSize=12;verticalAlign=top;resizable=0;rotatable=0;part=1;" parent="0DTxfH7YHv4nTH2xqImf-16" vertex="1">
          <mxGeometry y="30" width="160" height="90" as="geometry" />
        </mxCell>
        <mxCell id="0DTxfH7YHv4nTH2xqImf-18" value="Certificate" style="swimlane;childLayout=stackLayout;horizontal=1;startSize=30;horizontalStack=0;rounded=1;fontSize=14;fontStyle=0;strokeWidth=2;resizeParent=0;resizeLast=1;shadow=0;dashed=0;align=center;" parent="1" vertex="1">
          <mxGeometry x="-370" y="30" width="160" height="120" as="geometry" />
        </mxCell>
        <mxCell id="0DTxfH7YHv4nTH2xqImf-19" value="+ID&#xa;+name&#xa;+url" style="align=left;strokeColor=none;fillColor=none;spacingLeft=4;fontSize=12;verticalAlign=top;resizable=0;rotatable=0;part=1;" parent="0DTxfH7YHv4nTH2xqImf-18" vertex="1">
          <mxGeometry y="30" width="160" height="90" as="geometry" />
        </mxCell>
        <mxCell id="0DTxfH7YHv4nTH2xqImf-128" style="edgeStyle=orthogonalEdgeStyle;shape=link;rounded=0;orthogonalLoop=1;jettySize=auto;html=1;entryX=0.5;entryY=1;entryDx=0;entryDy=0;endArrow=open;endFill=0;" parent="1" source="0DTxfH7YHv4nTH2xqImf-20" edge="1">
          <mxGeometry relative="1" as="geometry">
            <mxPoint x="350" y="680" as="targetPoint" />
          </mxGeometry>
        </mxCell>
        <mxCell id="0DTxfH7YHv4nTH2xqImf-20" value="Note" style="swimlane;childLayout=stackLayout;horizontal=1;startSize=30;horizontalStack=0;rounded=1;fontSize=14;fontStyle=0;strokeWidth=2;resizeParent=0;resizeLast=1;shadow=0;dashed=0;align=center;" parent="1" vertex="1">
          <mxGeometry x="270" y="720" width="160" height="120" as="geometry" />
        </mxCell>
        <mxCell id="0DTxfH7YHv4nTH2xqImf-21" value="+ID&#xa;+title&#xa;+content&#xa;+date" style="align=left;strokeColor=none;fillColor=none;spacingLeft=4;fontSize=12;verticalAlign=top;resizable=0;rotatable=0;part=1;" parent="0DTxfH7YHv4nTH2xqImf-20" vertex="1">
          <mxGeometry y="30" width="160" height="90" as="geometry" />
        </mxCell>
        <mxCell id="0DTxfH7YHv4nTH2xqImf-23" value="Question" style="swimlane;childLayout=stackLayout;horizontal=1;startSize=30;horizontalStack=0;rounded=1;fontSize=14;fontStyle=0;strokeWidth=2;resizeParent=0;resizeLast=1;shadow=0;dashed=0;align=center;" parent="1" vertex="1">
          <mxGeometry x="575" y="-370" width="160" height="120" as="geometry" />
        </mxCell>
        <mxCell id="0DTxfH7YHv4nTH2xqImf-24" value="+ID&#xa;+content&#xa;+date" style="align=left;strokeColor=none;fillColor=none;spacingLeft=4;fontSize=12;verticalAlign=top;resizable=0;rotatable=0;part=1;" parent="0DTxfH7YHv4nTH2xqImf-23" vertex="1">
          <mxGeometry y="30" width="160" height="90" as="geometry" />
        </mxCell>
        <mxCell id="0DTxfH7YHv4nTH2xqImf-30" value="Discount" style="swimlane;childLayout=stackLayout;horizontal=1;startSize=30;horizontalStack=0;rounded=1;fontSize=14;fontStyle=0;strokeWidth=2;resizeParent=0;resizeLast=1;shadow=0;dashed=0;align=center;" parent="1" vertex="1">
          <mxGeometry x="840" y="304" width="160" height="120" as="geometry" />
        </mxCell>
        <mxCell id="0DTxfH7YHv4nTH2xqImf-31" value="+ID&#xa;+percentage&#xa;+startDate&#xa;+endDate" style="align=left;strokeColor=none;fillColor=none;spacingLeft=4;fontSize=12;verticalAlign=top;resizable=0;rotatable=0;part=1;" parent="0DTxfH7YHv4nTH2xqImf-30" vertex="1">
          <mxGeometry y="30" width="160" height="90" as="geometry" />
        </mxCell>
        <mxCell id="0DTxfH7YHv4nTH2xqImf-32" value="Answer" style="swimlane;childLayout=stackLayout;horizontal=1;startSize=30;horizontalStack=0;rounded=1;fontSize=14;fontStyle=0;strokeWidth=2;resizeParent=0;resizeLast=1;shadow=0;dashed=0;align=center;" parent="1" vertex="1">
          <mxGeometry x="775" y="-220" width="160" height="120" as="geometry" />
        </mxCell>
        <mxCell id="0DTxfH7YHv4nTH2xqImf-33" value="+ID&#xa;+content&#xa;+date" style="align=left;strokeColor=none;fillColor=none;spacingLeft=4;fontSize=12;verticalAlign=top;resizable=0;rotatable=0;part=1;" parent="0DTxfH7YHv4nTH2xqImf-32" vertex="1">
          <mxGeometry y="30" width="160" height="90" as="geometry" />
        </mxCell>
        <mxCell id="0DTxfH7YHv4nTH2xqImf-34" value="Complain" style="swimlane;childLayout=stackLayout;horizontal=1;startSize=30;horizontalStack=0;rounded=1;fontSize=14;fontStyle=0;strokeWidth=2;resizeParent=0;resizeLast=1;shadow=0;dashed=0;align=center;" parent="1" vertex="1">
          <mxGeometry x="50" y="-110" width="160" height="120" as="geometry" />
        </mxCell>
        <mxCell id="0DTxfH7YHv4nTH2xqImf-35" value="+ID&#xa;+title&#xa;+content&#xa;+refundNeeded" style="align=left;strokeColor=none;fillColor=none;spacingLeft=4;fontSize=12;verticalAlign=top;resizable=0;rotatable=0;part=1;" parent="0DTxfH7YHv4nTH2xqImf-34" vertex="1">
          <mxGeometry y="30" width="160" height="90" as="geometry" />
        </mxCell>
        <mxCell id="0DTxfH7YHv4nTH2xqImf-37" value="Bookmark" style="swimlane;childLayout=stackLayout;horizontal=1;startSize=30;horizontalStack=0;rounded=1;fontSize=14;fontStyle=0;strokeWidth=2;resizeParent=0;resizeLast=1;shadow=0;dashed=0;align=center;" parent="1" vertex="1">
          <mxGeometry x="-250" y="550" width="160" height="100" as="geometry" />
        </mxCell>
        <mxCell id="0DTxfH7YHv4nTH2xqImf-38" value="+ID&#xa;+title&#xa;+color&#xa;+timestamp" style="align=left;strokeColor=none;fillColor=none;spacingLeft=4;fontSize=12;verticalAlign=top;resizable=0;rotatable=0;part=1;" parent="0DTxfH7YHv4nTH2xqImf-37" vertex="1">
          <mxGeometry y="30" width="160" height="70" as="geometry" />
        </mxCell>
        <mxCell id="0DTxfH7YHv4nTH2xqImf-39" value="Comment" style="swimlane;childLayout=stackLayout;horizontal=1;startSize=30;horizontalStack=0;rounded=1;fontSize=14;fontStyle=0;strokeWidth=2;resizeParent=0;resizeLast=1;shadow=0;dashed=0;align=center;" parent="1" vertex="1">
          <mxGeometry x="-150" y="-382" width="160" height="120" as="geometry" />
        </mxCell>
        <mxCell id="0DTxfH7YHv4nTH2xqImf-40" value="+ID&#xa;+content&#xa;+date" style="align=left;strokeColor=none;fillColor=none;spacingLeft=4;fontSize=12;verticalAlign=top;resizable=0;rotatable=0;part=1;fontStyle=0" parent="0DTxfH7YHv4nTH2xqImf-39" vertex="1">
          <mxGeometry y="30" width="160" height="90" as="geometry" />
        </mxCell>
        <mxCell id="0DTxfH7YHv4nTH2xqImf-204" style="edgeStyle=orthogonalEdgeStyle;rounded=0;orthogonalLoop=1;jettySize=auto;html=1;endArrow=none;endFill=0;entryX=0.5;entryY=1;entryDx=0;entryDy=0;" parent="1" source="0DTxfH7YHv4nTH2xqImf-43" target="0DTxfH7YHv4nTH2xqImf-205" edge="1">
          <mxGeometry relative="1" as="geometry">
            <mxPoint x="550" y="180" as="targetPoint" />
            <Array as="points">
              <mxPoint x="620" y="500" />
              <mxPoint x="620" y="500" />
            </Array>
          </mxGeometry>
        </mxCell>
        <mxCell id="0DTxfH7YHv4nTH2xqImf-43" value="Tag" style="swimlane;childLayout=stackLayout;horizontal=1;startSize=30;horizontalStack=0;rounded=1;fontSize=14;fontStyle=0;strokeWidth=2;resizeParent=0;resizeLast=1;shadow=0;dashed=0;align=center;" parent="1" vertex="1">
          <mxGeometry x="540" y="560" width="160" height="80" as="geometry" />
        </mxCell>
        <mxCell id="0DTxfH7YHv4nTH2xqImf-44" value="+name&#xa;+color" style="align=left;strokeColor=none;fillColor=none;spacingLeft=4;fontSize=12;verticalAlign=top;resizable=0;rotatable=0;part=1;" parent="0DTxfH7YHv4nTH2xqImf-43" vertex="1">
          <mxGeometry y="30" width="160" height="50" as="geometry" />
        </mxCell>
        <mxCell id="0DTxfH7YHv4nTH2xqImf-47" value="Cart" style="swimlane;childLayout=stackLayout;horizontal=1;startSize=30;horizontalStack=0;rounded=1;fontSize=14;fontStyle=0;strokeWidth=2;resizeParent=0;resizeLast=1;shadow=0;dashed=0;align=center;" parent="1" vertex="1">
          <mxGeometry x="-554" y="290.5" width="160" height="59.5" as="geometry" />
        </mxCell>
        <mxCell id="0DTxfH7YHv4nTH2xqImf-52" style="edgeStyle=orthogonalEdgeStyle;rounded=0;orthogonalLoop=1;jettySize=auto;html=1;endArrow=none;endFill=0;exitX=1;exitY=0.5;exitDx=0;exitDy=0;" parent="1" source="0DTxfH7YHv4nTH2xqImf-49" edge="1">
          <mxGeometry relative="1" as="geometry">
            <mxPoint x="450" y="135" as="targetPoint" />
            <Array as="points">
              <mxPoint x="380" y="110" />
              <mxPoint x="450" y="110" />
            </Array>
          </mxGeometry>
        </mxCell>
        <mxCell id="0DTxfH7YHv4nTH2xqImf-53" style="edgeStyle=orthogonalEdgeStyle;rounded=0;orthogonalLoop=1;jettySize=auto;html=1;endArrow=none;endFill=0;entryX=1;entryY=0.25;entryDx=0;entryDy=0;" parent="1" source="0DTxfH7YHv4nTH2xqImf-49" target="0DTxfH7YHv4nTH2xqImf-4" edge="1">
          <mxGeometry relative="1" as="geometry">
            <Array as="points">
              <mxPoint x="210" y="110" />
            </Array>
          </mxGeometry>
        </mxCell>
        <mxCell id="0DTxfH7YHv4nTH2xqImf-49" value="Buy" style="shape=rhombus;perimeter=rhombusPerimeter;whiteSpace=wrap;html=1;align=center;" parent="1" vertex="1">
          <mxGeometry x="250" y="80" width="120" height="60" as="geometry" />
        </mxCell>
        <mxCell id="0DTxfH7YHv4nTH2xqImf-66" style="edgeStyle=orthogonalEdgeStyle;rounded=0;orthogonalLoop=1;jettySize=auto;html=1;entryX=0.5;entryY=1;entryDx=0;entryDy=0;endArrow=open;endFill=0;" parent="1" source="0DTxfH7YHv4nTH2xqImf-64" target="0DTxfH7YHv4nTH2xqImf-4" edge="1">
          <mxGeometry relative="1" as="geometry" />
        </mxCell>
        <mxCell id="0DTxfH7YHv4nTH2xqImf-67" style="edgeStyle=orthogonalEdgeStyle;rounded=0;orthogonalLoop=1;jettySize=auto;html=1;endArrow=open;endFill=0;entryX=0.5;entryY=0;entryDx=0;entryDy=0;shape=link;" parent="1" source="0DTxfH7YHv4nTH2xqImf-64" target="0DTxfH7YHv4nTH2xqImf-5" edge="1">
          <mxGeometry relative="1" as="geometry">
            <mxPoint x="130" y="420" as="targetPoint" />
            <Array as="points">
              <mxPoint x="130" y="410" />
              <mxPoint x="130" y="410" />
            </Array>
          </mxGeometry>
        </mxCell>
        <mxCell id="0DTxfH7YHv4nTH2xqImf-64" value="Has a" style="shape=rhombus;perimeter=rhombusPerimeter;whiteSpace=wrap;html=1;align=center;rounded=0;sketch=0;" parent="1" vertex="1">
          <mxGeometry x="70" y="330" width="120" height="60" as="geometry" />
        </mxCell>
        <mxCell id="0DTxfH7YHv4nTH2xqImf-71" style="edgeStyle=orthogonalEdgeStyle;rounded=0;orthogonalLoop=1;jettySize=auto;html=1;entryX=0.25;entryY=1;entryDx=0;entryDy=0;endArrow=none;endFill=0;exitX=1;exitY=0.5;exitDx=0;exitDy=0;" parent="1" source="0DTxfH7YHv4nTH2xqImf-69" target="0DTxfH7YHv4nTH2xqImf-2" edge="1">
          <mxGeometry relative="1" as="geometry">
            <Array as="points">
              <mxPoint x="500" y="280" />
            </Array>
          </mxGeometry>
        </mxCell>
        <mxCell id="0DTxfH7YHv4nTH2xqImf-69" value="Contain" style="shape=rhombus;perimeter=rhombusPerimeter;whiteSpace=wrap;html=1;align=center;rounded=0;sketch=0;" parent="1" vertex="1">
          <mxGeometry x="280" y="250" width="120" height="60" as="geometry" />
        </mxCell>
        <mxCell id="0DTxfH7YHv4nTH2xqImf-70" style="edgeStyle=orthogonalEdgeStyle;rounded=0;orthogonalLoop=1;jettySize=auto;html=1;entryX=0;entryY=0.5;entryDx=0;entryDy=0;endArrow=none;endFill=0;exitX=0.5;exitY=1;exitDx=0;exitDy=0;" parent="1" source="0DTxfH7YHv4nTH2xqImf-80" target="0DTxfH7YHv4nTH2xqImf-69" edge="1">
          <mxGeometry relative="1" as="geometry">
            <Array as="points">
              <mxPoint x="129" y="520" />
              <mxPoint x="250" y="520" />
              <mxPoint x="250" y="280" />
            </Array>
          </mxGeometry>
        </mxCell>
        <mxCell id="0DTxfH7YHv4nTH2xqImf-73" style="edgeStyle=orthogonalEdgeStyle;rounded=0;orthogonalLoop=1;jettySize=auto;html=1;endArrow=open;endFill=0;" parent="1" source="0DTxfH7YHv4nTH2xqImf-72" edge="1">
          <mxGeometry relative="1" as="geometry">
            <mxPoint x="510" y="180" as="targetPoint" />
            <Array as="points">
              <mxPoint x="510" y="180" />
            </Array>
          </mxGeometry>
        </mxCell>
        <mxCell id="0DTxfH7YHv4nTH2xqImf-74" style="edgeStyle=orthogonalEdgeStyle;rounded=0;orthogonalLoop=1;jettySize=auto;html=1;entryX=0.5;entryY=0;entryDx=0;entryDy=0;endArrow=none;endFill=0;shape=link;" parent="1" source="0DTxfH7YHv4nTH2xqImf-72" target="0DTxfH7YHv4nTH2xqImf-16" edge="1">
          <mxGeometry relative="1" as="geometry" />
        </mxCell>
        <mxCell id="0DTxfH7YHv4nTH2xqImf-72" value="Has" style="shape=rhombus;perimeter=rhombusPerimeter;whiteSpace=wrap;html=1;align=center;rounded=0;sketch=0;" parent="1" vertex="1">
          <mxGeometry x="450" y="340" width="120" height="60" as="geometry" />
        </mxCell>
        <mxCell id="0DTxfH7YHv4nTH2xqImf-84" style="edgeStyle=orthogonalEdgeStyle;rounded=0;orthogonalLoop=1;jettySize=auto;html=1;entryX=0.003;entryY=0.439;entryDx=0;entryDy=0;endArrow=open;endFill=0;entryPerimeter=0;" parent="1" source="0DTxfH7YHv4nTH2xqImf-83" target="0DTxfH7YHv4nTH2xqImf-9" edge="1">
          <mxGeometry relative="1" as="geometry" />
        </mxCell>
        <mxCell id="0DTxfH7YHv4nTH2xqImf-85" style="edgeStyle=orthogonalEdgeStyle;shape=link;rounded=0;orthogonalLoop=1;jettySize=auto;html=1;endArrow=open;endFill=0;entryX=0.75;entryY=1;entryDx=0;entryDy=0;" parent="1" source="0DTxfH7YHv4nTH2xqImf-83" target="0DTxfH7YHv4nTH2xqImf-2" edge="1">
          <mxGeometry relative="1" as="geometry">
            <mxPoint x="630" y="220" as="targetPoint" />
            <Array as="points">
              <mxPoint x="730" y="220" />
              <mxPoint x="580" y="220" />
            </Array>
          </mxGeometry>
        </mxCell>
        <mxCell id="0DTxfH7YHv4nTH2xqImf-83" value="Publish" style="shape=rhombus;perimeter=rhombusPerimeter;whiteSpace=wrap;html=1;align=center;rounded=0;shadow=0;glass=0;sketch=0;strokeWidth=2;gradientColor=none;" parent="1" vertex="1">
          <mxGeometry x="735" y="190" width="120" height="60" as="geometry" />
        </mxCell>
        <mxCell id="0DTxfH7YHv4nTH2xqImf-91" style="edgeStyle=orthogonalEdgeStyle;rounded=0;orthogonalLoop=1;jettySize=auto;html=1;entryX=0.28;entryY=0.014;entryDx=0;entryDy=0;entryPerimeter=0;endArrow=none;endFill=0;" parent="1" source="0DTxfH7YHv4nTH2xqImf-90" target="0DTxfH7YHv4nTH2xqImf-75" edge="1">
          <mxGeometry relative="1" as="geometry" />
        </mxCell>
        <mxCell id="0DTxfH7YHv4nTH2xqImf-92" style="edgeStyle=orthogonalEdgeStyle;rounded=0;orthogonalLoop=1;jettySize=auto;html=1;exitX=0;exitY=0.5;exitDx=0;exitDy=0;entryX=0.75;entryY=1;entryDx=0;entryDy=0;endArrow=none;endFill=0;" parent="1" source="0DTxfH7YHv4nTH2xqImf-90" target="0DTxfH7YHv4nTH2xqImf-4" edge="1">
          <mxGeometry relative="1" as="geometry" />
        </mxCell>
        <mxCell id="0DTxfH7YHv4nTH2xqImf-90" value="Complete" style="shape=rhombus;perimeter=rhombusPerimeter;whiteSpace=wrap;html=1;align=center;rounded=0;shadow=0;glass=0;sketch=0;strokeWidth=2;gradientColor=none;" parent="1" vertex="1">
          <mxGeometry x="263" y="310" width="120" height="60" as="geometry" />
        </mxCell>
        <mxCell id="0DTxfH7YHv4nTH2xqImf-95" style="edgeStyle=orthogonalEdgeStyle;rounded=0;orthogonalLoop=1;jettySize=auto;html=1;entryX=1;entryY=0.75;entryDx=0;entryDy=0;endArrow=none;endFill=0;" parent="1" source="0DTxfH7YHv4nTH2xqImf-94" target="0DTxfH7YHv4nTH2xqImf-4" edge="1">
          <mxGeometry relative="1" as="geometry" />
        </mxCell>
        <mxCell id="0DTxfH7YHv4nTH2xqImf-96" style="edgeStyle=orthogonalEdgeStyle;rounded=0;orthogonalLoop=1;jettySize=auto;html=1;endArrow=none;endFill=0;" parent="1" source="0DTxfH7YHv4nTH2xqImf-94" edge="1">
          <mxGeometry relative="1" as="geometry">
            <mxPoint x="450" y="150" as="targetPoint" />
          </mxGeometry>
        </mxCell>
        <mxCell id="0DTxfH7YHv4nTH2xqImf-94" value="Rate" style="shape=rhombus;perimeter=rhombusPerimeter;whiteSpace=wrap;html=1;align=center;" parent="1" vertex="1">
          <mxGeometry x="199" y="210" width="120" height="60" as="geometry" />
        </mxCell>
        <mxCell id="0DTxfH7YHv4nTH2xqImf-99" style="edgeStyle=orthogonalEdgeStyle;rounded=0;orthogonalLoop=1;jettySize=auto;html=1;exitX=1;exitY=0.5;exitDx=0;exitDy=0;entryX=0;entryY=0.5;entryDx=0;entryDy=0;endArrow=open;endFill=0;" parent="1" source="0DTxfH7YHv4nTH2xqImf-98" target="0DTxfH7YHv4nTH2xqImf-10" edge="1">
          <mxGeometry relative="1" as="geometry" />
        </mxCell>
        <mxCell id="0DTxfH7YHv4nTH2xqImf-100" style="edgeStyle=orthogonalEdgeStyle;rounded=0;orthogonalLoop=1;jettySize=auto;html=1;exitX=0.5;exitY=1;exitDx=0;exitDy=0;entryX=0.421;entryY=-0.02;entryDx=0;entryDy=0;entryPerimeter=0;endArrow=none;endFill=0;" parent="1" source="0DTxfH7YHv4nTH2xqImf-98" target="0DTxfH7YHv4nTH2xqImf-34" edge="1">
          <mxGeometry relative="1" as="geometry">
            <Array as="points">
              <mxPoint x="117" y="-150" />
            </Array>
          </mxGeometry>
        </mxCell>
        <mxCell id="0DTxfH7YHv4nTH2xqImf-98" value="Approve" style="shape=rhombus;perimeter=rhombusPerimeter;whiteSpace=wrap;html=1;align=center;rounded=0;shadow=0;glass=0;sketch=0;strokeWidth=2;gradientColor=none;" parent="1" vertex="1">
          <mxGeometry x="70" y="-210" width="120" height="60" as="geometry" />
        </mxCell>
        <mxCell id="0DTxfH7YHv4nTH2xqImf-105" style="edgeStyle=orthogonalEdgeStyle;rounded=0;orthogonalLoop=1;jettySize=auto;html=1;entryX=1;entryY=0.5;entryDx=0;entryDy=0;endArrow=open;endFill=0;" parent="1" source="0DTxfH7YHv4nTH2xqImf-104" target="0DTxfH7YHv4nTH2xqImf-35" edge="1">
          <mxGeometry relative="1" as="geometry" />
        </mxCell>
        <mxCell id="0DTxfH7YHv4nTH2xqImf-106" style="edgeStyle=orthogonalEdgeStyle;rounded=0;orthogonalLoop=1;jettySize=auto;html=1;entryX=0.5;entryY=0;entryDx=0;entryDy=0;endArrow=open;endFill=0;" parent="1" source="0DTxfH7YHv4nTH2xqImf-104" target="0DTxfH7YHv4nTH2xqImf-102" edge="1">
          <mxGeometry relative="1" as="geometry" />
        </mxCell>
        <mxCell id="0DTxfH7YHv4nTH2xqImf-104" value="Request" style="shape=rhombus;perimeter=rhombusPerimeter;whiteSpace=wrap;html=1;align=center;rounded=0;shadow=0;glass=0;sketch=0;strokeWidth=2;gradientColor=none;" parent="1" vertex="1">
          <mxGeometry x="275" y="-60" width="120" height="60" as="geometry" />
        </mxCell>
        <mxCell id="0DTxfH7YHv4nTH2xqImf-109" style="edgeStyle=orthogonalEdgeStyle;rounded=0;orthogonalLoop=1;jettySize=auto;html=1;endArrow=open;endFill=0;exitX=0.5;exitY=1;exitDx=0;exitDy=0;" parent="1" source="0DTxfH7YHv4nTH2xqImf-111" edge="1">
          <mxGeometry relative="1" as="geometry">
            <mxPoint x="560" y="-10" as="sourcePoint" />
            <mxPoint x="540" y="50" as="targetPoint" />
          </mxGeometry>
        </mxCell>
        <mxCell id="0DTxfH7YHv4nTH2xqImf-108" style="edgeStyle=orthogonalEdgeStyle;rounded=0;orthogonalLoop=1;jettySize=auto;html=1;entryX=0.5;entryY=0;entryDx=0;entryDy=0;endArrow=none;endFill=0;exitX=0.5;exitY=1;exitDx=0;exitDy=0;shape=link;" parent="1" source="0DTxfH7YHv4nTH2xqImf-114" target="0DTxfH7YHv4nTH2xqImf-112" edge="1">
          <mxGeometry relative="1" as="geometry">
            <mxPoint x="600" y="-90" as="sourcePoint" />
            <mxPoint x="560" y="-70" as="targetPoint" />
            <Array as="points" />
          </mxGeometry>
        </mxCell>
        <mxCell id="0DTxfH7YHv4nTH2xqImf-111" value="" style="shape=rhombus;perimeter=rhombusPerimeter;whiteSpace=wrap;html=1;align=center;rounded=0;sketch=0;" parent="1" vertex="1">
          <mxGeometry x="370" y="-100" width="130" height="65" as="geometry" />
        </mxCell>
        <mxCell id="0DTxfH7YHv4nTH2xqImf-112" value="Has" style="shape=rhombus;perimeter=rhombusPerimeter;whiteSpace=wrap;html=1;align=center;rounded=0;sketch=0;" parent="1" vertex="1">
          <mxGeometry x="375" y="-97.5" width="120" height="60" as="geometry" />
        </mxCell>
        <mxCell id="0DTxfH7YHv4nTH2xqImf-120" style="edgeStyle=orthogonalEdgeStyle;rounded=0;orthogonalLoop=1;jettySize=auto;html=1;entryX=-0.006;entryY=0.389;entryDx=0;entryDy=0;entryPerimeter=0;endArrow=none;endFill=0;" parent="1" source="0DTxfH7YHv4nTH2xqImf-119" target="0DTxfH7YHv4nTH2xqImf-4" edge="1">
          <mxGeometry relative="1" as="geometry" />
        </mxCell>
        <mxCell id="0DTxfH7YHv4nTH2xqImf-121" style="edgeStyle=orthogonalEdgeStyle;rounded=0;orthogonalLoop=1;jettySize=auto;html=1;entryX=1.019;entryY=0.356;entryDx=0;entryDy=0;entryPerimeter=0;endArrow=none;endFill=0;" parent="1" source="0DTxfH7YHv4nTH2xqImf-119" target="0DTxfH7YHv4nTH2xqImf-19" edge="1">
          <mxGeometry relative="1" as="geometry" />
        </mxCell>
        <mxCell id="0DTxfH7YHv4nTH2xqImf-119" value="Has" style="shape=rhombus;perimeter=rhombusPerimeter;whiteSpace=wrap;html=1;align=center;rounded=0;shadow=0;glass=0;sketch=0;strokeWidth=2;gradientColor=none;" parent="1" vertex="1">
          <mxGeometry x="-150" y="90" width="120" height="60" as="geometry" />
        </mxCell>
        <mxCell id="0DTxfH7YHv4nTH2xqImf-123" style="edgeStyle=orthogonalEdgeStyle;rounded=0;orthogonalLoop=1;jettySize=auto;html=1;endArrow=none;endFill=0;exitX=0;exitY=0.5;exitDx=0;exitDy=0;shape=link;" parent="1" source="0DTxfH7YHv4nTH2xqImf-122" edge="1">
          <mxGeometry relative="1" as="geometry">
            <mxPoint x="-210" y="50" as="targetPoint" />
            <Array as="points">
              <mxPoint x="-210" y="50" />
            </Array>
          </mxGeometry>
        </mxCell>
        <mxCell id="0DTxfH7YHv4nTH2xqImf-124" style="edgeStyle=orthogonalEdgeStyle;rounded=0;orthogonalLoop=1;jettySize=auto;html=1;endArrow=open;endFill=0;exitX=1;exitY=0.5;exitDx=0;exitDy=0;" parent="1" source="0DTxfH7YHv4nTH2xqImf-122" edge="1">
          <mxGeometry relative="1" as="geometry">
            <mxPoint x="450" y="70" as="targetPoint" />
            <Array as="points">
              <mxPoint x="240" y="50" />
              <mxPoint x="240" y="70" />
              <mxPoint x="450" y="70" />
            </Array>
          </mxGeometry>
        </mxCell>
        <mxCell id="0DTxfH7YHv4nTH2xqImf-122" value="Certificate_of" style="shape=rhombus;perimeter=rhombusPerimeter;whiteSpace=wrap;html=1;align=center;rounded=0;shadow=0;glass=0;sketch=0;strokeWidth=2;gradientColor=none;" parent="1" vertex="1">
          <mxGeometry x="-140" y="20" width="120" height="60" as="geometry" />
        </mxCell>
        <mxCell id="0DTxfH7YHv4nTH2xqImf-129" style="edgeStyle=orthogonalEdgeStyle;rounded=0;orthogonalLoop=1;jettySize=auto;html=1;entryX=0.5;entryY=1;entryDx=0;entryDy=0;endArrow=open;endFill=0;" parent="1" target="0DTxfH7YHv4nTH2xqImf-17" edge="1">
          <mxGeometry relative="1" as="geometry">
            <mxPoint x="350" y="620" as="sourcePoint" />
          </mxGeometry>
        </mxCell>
        <mxCell id="0DTxfH7YHv4nTH2xqImf-134" style="edgeStyle=orthogonalEdgeStyle;rounded=0;orthogonalLoop=1;jettySize=auto;html=1;entryX=0;entryY=0.75;entryDx=0;entryDy=0;endArrow=open;endFill=0;exitX=0.5;exitY=0;exitDx=0;exitDy=0;" parent="1" source="0DTxfH7YHv4nTH2xqImf-132" target="0DTxfH7YHv4nTH2xqImf-4" edge="1">
          <mxGeometry relative="1" as="geometry" />
        </mxCell>
        <mxCell id="0DTxfH7YHv4nTH2xqImf-132" value="Create" style="shape=rhombus;perimeter=rhombusPerimeter;whiteSpace=wrap;html=1;align=center;rounded=0;shadow=0;glass=0;sketch=0;strokeWidth=2;gradientColor=none;" parent="1" vertex="1">
          <mxGeometry x="-57" y="364" width="120" height="60" as="geometry" />
        </mxCell>
        <mxCell id="0DTxfH7YHv4nTH2xqImf-133" style="edgeStyle=orthogonalEdgeStyle;rounded=0;orthogonalLoop=1;jettySize=auto;html=1;entryX=0.5;entryY=1;entryDx=0;entryDy=0;endArrow=none;endFill=0;" parent="1" source="0DTxfH7YHv4nTH2xqImf-21" target="0DTxfH7YHv4nTH2xqImf-132" edge="1">
          <mxGeometry relative="1" as="geometry" />
        </mxCell>
        <mxCell id="0DTxfH7YHv4nTH2xqImf-135" value="BU DA WEAK&amp;nbsp; MI" style="edgeLabel;html=1;align=center;verticalAlign=middle;resizable=0;points=[];" parent="0DTxfH7YHv4nTH2xqImf-133" vertex="1" connectable="0">
          <mxGeometry x="0.2493" y="-1" relative="1" as="geometry">
            <mxPoint as="offset" />
          </mxGeometry>
        </mxCell>
        <mxCell id="0DTxfH7YHv4nTH2xqImf-138" style="edgeStyle=orthogonalEdgeStyle;rounded=0;orthogonalLoop=1;jettySize=auto;html=1;endArrow=open;endFill=0;exitX=0;exitY=0.5;exitDx=0;exitDy=0;entryX=1.009;entryY=0.553;entryDx=0;entryDy=0;entryPerimeter=0;" parent="1" source="0DTxfH7YHv4nTH2xqImf-141" target="0DTxfH7YHv4nTH2xqImf-142" edge="1">
          <mxGeometry relative="1" as="geometry">
            <mxPoint x="725" y="-80" as="sourcePoint" />
            <mxPoint x="670" y="-87" as="targetPoint" />
          </mxGeometry>
        </mxCell>
        <mxCell id="0DTxfH7YHv4nTH2xqImf-139" style="edgeStyle=orthogonalEdgeStyle;rounded=0;orthogonalLoop=1;jettySize=auto;html=1;entryX=0.5;entryY=0;entryDx=0;entryDy=0;endArrow=none;endFill=0;shape=link;exitX=0.5;exitY=1;exitDx=0;exitDy=0;" parent="1" source="0DTxfH7YHv4nTH2xqImf-140" target="0DTxfH7YHv4nTH2xqImf-32" edge="1">
          <mxGeometry relative="1" as="geometry">
            <mxPoint x="760" y="-87.5" as="sourcePoint" />
          </mxGeometry>
        </mxCell>
        <mxCell id="0DTxfH7YHv4nTH2xqImf-140" value="" style="shape=rhombus;perimeter=rhombusPerimeter;whiteSpace=wrap;html=1;align=center;rounded=0;sketch=0;" parent="1" vertex="1">
          <mxGeometry x="790" y="-335" width="130" height="65" as="geometry" />
        </mxCell>
        <mxCell id="0DTxfH7YHv4nTH2xqImf-141" value="Has a" style="shape=rhombus;perimeter=rhombusPerimeter;whiteSpace=wrap;html=1;align=center;rounded=0;sketch=0;" parent="1" vertex="1">
          <mxGeometry x="795" y="-332.5" width="120" height="60" as="geometry" />
        </mxCell>
        <mxCell id="0DTxfH7YHv4nTH2xqImf-144" style="edgeStyle=orthogonalEdgeStyle;rounded=0;orthogonalLoop=1;jettySize=auto;html=1;entryX=0.75;entryY=0;entryDx=0;entryDy=0;endArrow=open;endFill=0;" parent="1" source="0DTxfH7YHv4nTH2xqImf-143" target="0DTxfH7YHv4nTH2xqImf-86" edge="1">
          <mxGeometry relative="1" as="geometry" />
        </mxCell>
        <mxCell id="0DTxfH7YHv4nTH2xqImf-145" style="edgeStyle=orthogonalEdgeStyle;shape=link;rounded=0;orthogonalLoop=1;jettySize=auto;html=1;entryX=0.5;entryY=1;entryDx=0;entryDy=0;endArrow=open;endFill=0;exitX=0.5;exitY=0;exitDx=0;exitDy=0;" parent="1" source="0DTxfH7YHv4nTH2xqImf-143" target="0DTxfH7YHv4nTH2xqImf-142" edge="1">
          <mxGeometry relative="1" as="geometry" />
        </mxCell>
        <mxCell id="0DTxfH7YHv4nTH2xqImf-143" value="Has" style="shape=rhombus;perimeter=rhombusPerimeter;whiteSpace=wrap;html=1;align=center;rounded=0;shadow=0;glass=0;sketch=0;strokeWidth=2;gradientColor=none;" parent="1" vertex="1">
          <mxGeometry x="575" y="-122.5" width="120" height="60" as="geometry" />
        </mxCell>
        <mxCell id="0DTxfH7YHv4nTH2xqImf-149" style="edgeStyle=orthogonalEdgeStyle;rounded=0;orthogonalLoop=1;jettySize=auto;html=1;entryX=0.2;entryY=1.019;entryDx=0;entryDy=0;entryPerimeter=0;endArrow=none;endFill=0;shape=link;" parent="1" source="0DTxfH7YHv4nTH2xqImf-147" target="0DTxfH7YHv4nTH2xqImf-142" edge="1">
          <mxGeometry relative="1" as="geometry" />
        </mxCell>
        <mxCell id="0DTxfH7YHv4nTH2xqImf-150" style="edgeStyle=orthogonalEdgeStyle;rounded=0;orthogonalLoop=1;jettySize=auto;html=1;entryX=0.75;entryY=0;entryDx=0;entryDy=0;endArrow=open;endFill=0;" parent="1" source="0DTxfH7YHv4nTH2xqImf-147" target="0DTxfH7YHv4nTH2xqImf-3" edge="1">
          <mxGeometry relative="1" as="geometry">
            <Array as="points">
              <mxPoint x="535" y="-110" />
              <mxPoint x="230" y="-110" />
              <mxPoint x="230" y="40" />
              <mxPoint x="170" y="40" />
            </Array>
          </mxGeometry>
        </mxCell>
        <mxCell id="0DTxfH7YHv4nTH2xqImf-147" value="Create" style="shape=rhombus;perimeter=rhombusPerimeter;whiteSpace=wrap;html=1;align=center;rounded=0;shadow=0;glass=0;sketch=0;strokeWidth=2;gradientColor=none;" parent="1" vertex="1">
          <mxGeometry x="475" y="-180" width="120" height="60" as="geometry" />
        </mxCell>
        <mxCell id="0DTxfH7YHv4nTH2xqImf-160" style="edgeStyle=orthogonalEdgeStyle;rounded=0;orthogonalLoop=1;jettySize=auto;html=1;exitX=0;exitY=1;exitDx=0;exitDy=0;entryX=0.5;entryY=0;entryDx=0;entryDy=0;endArrow=open;endFill=0;" parent="1" source="0DTxfH7YHv4nTH2xqImf-154" target="0DTxfH7YHv4nTH2xqImf-8" edge="1">
          <mxGeometry relative="1" as="geometry">
            <Array as="points">
              <mxPoint x="818" />
              <mxPoint x="760" />
            </Array>
          </mxGeometry>
        </mxCell>
        <mxCell id="0DTxfH7YHv4nTH2xqImf-154" value="" style="shape=rhombus;perimeter=rhombusPerimeter;whiteSpace=wrap;html=1;align=center;rounded=0;sketch=0;" parent="1" vertex="1">
          <mxGeometry x="785" y="-74" width="130" height="65" as="geometry" />
        </mxCell>
        <mxCell id="0DTxfH7YHv4nTH2xqImf-159" style="edgeStyle=orthogonalEdgeStyle;shape=link;rounded=0;orthogonalLoop=1;jettySize=auto;html=1;endArrow=none;endFill=0;exitX=0.5;exitY=0;exitDx=0;exitDy=0;" parent="1" source="0DTxfH7YHv4nTH2xqImf-155" edge="1">
          <mxGeometry relative="1" as="geometry">
            <mxPoint x="850" y="-100" as="targetPoint" />
            <mxPoint x="849.9999999999995" y="-81.49999999999955" as="sourcePoint" />
          </mxGeometry>
        </mxCell>
        <mxCell id="0DTxfH7YHv4nTH2xqImf-155" value="Create" style="shape=rhombus;perimeter=rhombusPerimeter;whiteSpace=wrap;html=1;align=center;rounded=0;shadow=0;glass=0;sketch=0;strokeWidth=2;gradientColor=none;" parent="1" vertex="1">
          <mxGeometry x="790" y="-71.5" width="120" height="60" as="geometry" />
        </mxCell>
        <mxCell id="0DTxfH7YHv4nTH2xqImf-161" value="Person" style="swimlane;childLayout=stackLayout;horizontal=1;startSize=30;horizontalStack=0;rounded=1;fontSize=14;fontStyle=0;strokeWidth=2;resizeParent=0;resizeLast=1;shadow=0;dashed=0;align=center;glass=0;sketch=0;gradientColor=none;" parent="1" vertex="1">
          <mxGeometry x="980" width="160" height="140" as="geometry" />
        </mxCell>
        <mxCell id="0DTxfH7YHv4nTH2xqImf-162" value="+ID&#xa;+username&#xa;+name&#xa;+surname&#xa;+password&#xa;+email" style="align=left;strokeColor=none;fillColor=none;spacingLeft=4;fontSize=12;verticalAlign=top;resizable=0;rotatable=0;part=1;" parent="0DTxfH7YHv4nTH2xqImf-161" vertex="1">
          <mxGeometry y="30" width="160" height="110" as="geometry" />
        </mxCell>
        <mxCell id="0DTxfH7YHv4nTH2xqImf-163" style="edgeStyle=orthogonalEdgeStyle;rounded=0;orthogonalLoop=1;jettySize=auto;html=1;entryX=0;entryY=0.5;entryDx=0;entryDy=0;endArrow=block;endFill=0;" parent="1" source="0DTxfH7YHv4nTH2xqImf-9" target="0DTxfH7YHv4nTH2xqImf-162" edge="1">
          <mxGeometry relative="1" as="geometry" />
        </mxCell>
        <mxCell id="0DTxfH7YHv4nTH2xqImf-164" style="edgeStyle=orthogonalEdgeStyle;rounded=0;orthogonalLoop=1;jettySize=auto;html=1;exitX=0.25;exitY=1;exitDx=0;exitDy=0;entryX=0.2;entryY=0.999;entryDx=0;entryDy=0;entryPerimeter=0;endArrow=block;endFill=0;" parent="1" source="0DTxfH7YHv4nTH2xqImf-4" target="0DTxfH7YHv4nTH2xqImf-162" edge="1">
          <mxGeometry relative="1" as="geometry">
            <Array as="points">
              <mxPoint x="90" y="270" />
              <mxPoint x="1012" y="270" />
            </Array>
          </mxGeometry>
        </mxCell>
        <mxCell id="0DTxfH7YHv4nTH2xqImf-169" style="edgeStyle=orthogonalEdgeStyle;rounded=0;orthogonalLoop=1;jettySize=auto;html=1;exitX=1;exitY=0.5;exitDx=0;exitDy=0;endArrow=none;endFill=0;" parent="1" source="0DTxfH7YHv4nTH2xqImf-166" target="0DTxfH7YHv4nTH2xqImf-31" edge="1">
          <mxGeometry relative="1" as="geometry" />
        </mxCell>
        <mxCell id="0DTxfH7YHv4nTH2xqImf-166" value="" style="shape=rhombus;perimeter=rhombusPerimeter;whiteSpace=wrap;html=1;align=center;rounded=0;sketch=0;" parent="1" vertex="1">
          <mxGeometry x="630" y="299" width="130" height="65" as="geometry" />
        </mxCell>
        <mxCell id="0DTxfH7YHv4nTH2xqImf-168" style="edgeStyle=orthogonalEdgeStyle;rounded=0;orthogonalLoop=1;jettySize=auto;html=1;exitX=0;exitY=0.5;exitDx=0;exitDy=0;endArrow=open;endFill=0;" parent="1" source="0DTxfH7YHv4nTH2xqImf-167" edge="1">
          <mxGeometry relative="1" as="geometry">
            <mxPoint x="570" y="180" as="targetPoint" />
            <Array as="points">
              <mxPoint x="570" y="331" />
              <mxPoint x="570" y="180" />
            </Array>
          </mxGeometry>
        </mxCell>
        <mxCell id="0DTxfH7YHv4nTH2xqImf-167" value="Has" style="shape=rhombus;perimeter=rhombusPerimeter;whiteSpace=wrap;html=1;align=center;rounded=0;sketch=0;" parent="1" vertex="1">
          <mxGeometry x="635" y="301.5" width="120" height="60" as="geometry" />
        </mxCell>
        <mxCell id="0DTxfH7YHv4nTH2xqImf-177" style="edgeStyle=orthogonalEdgeStyle;rounded=0;orthogonalLoop=1;jettySize=auto;html=1;entryX=1.006;entryY=0.678;entryDx=0;entryDy=0;entryPerimeter=0;endArrow=open;endFill=0;" parent="1" source="0DTxfH7YHv4nTH2xqImf-171" target="0DTxfH7YHv4nTH2xqImf-9" edge="1">
          <mxGeometry relative="1" as="geometry">
            <Array as="points">
              <mxPoint x="940" y="118" />
            </Array>
          </mxGeometry>
        </mxCell>
        <mxCell id="0DTxfH7YHv4nTH2xqImf-178" style="edgeStyle=orthogonalEdgeStyle;rounded=0;orthogonalLoop=1;jettySize=auto;html=1;entryX=0.5;entryY=0;entryDx=0;entryDy=0;endArrow=none;endFill=0;" parent="1" source="0DTxfH7YHv4nTH2xqImf-171" target="0DTxfH7YHv4nTH2xqImf-30" edge="1">
          <mxGeometry relative="1" as="geometry" />
        </mxCell>
        <mxCell id="0DTxfH7YHv4nTH2xqImf-171" value="Allow" style="shape=rhombus;perimeter=rhombusPerimeter;whiteSpace=wrap;html=1;align=center;rounded=0;shadow=0;glass=0;sketch=0;strokeWidth=2;gradientColor=none;" parent="1" vertex="1">
          <mxGeometry x="880" y="190" width="120" height="60" as="geometry" />
        </mxCell>
        <mxCell id="0DTxfH7YHv4nTH2xqImf-175" style="edgeStyle=orthogonalEdgeStyle;rounded=0;orthogonalLoop=1;jettySize=auto;html=1;entryX=1;entryY=0.5;entryDx=0;entryDy=0;endArrow=none;endFill=0;" parent="1" source="0DTxfH7YHv4nTH2xqImf-172" target="0DTxfH7YHv4nTH2xqImf-31" edge="1">
          <mxGeometry relative="1" as="geometry">
            <Array as="points">
              <mxPoint x="1100" y="379" />
            </Array>
          </mxGeometry>
        </mxCell>
        <mxCell id="0DTxfH7YHv4nTH2xqImf-176" style="edgeStyle=orthogonalEdgeStyle;rounded=0;orthogonalLoop=1;jettySize=auto;html=1;exitX=1;exitY=0;exitDx=0;exitDy=0;entryX=0.075;entryY=0;entryDx=0;entryDy=0;entryPerimeter=0;endArrow=open;endFill=0;" parent="1" source="0DTxfH7YHv4nTH2xqImf-172" target="0DTxfH7YHv4nTH2xqImf-10" edge="1">
          <mxGeometry relative="1" as="geometry">
            <Array as="points">
              <mxPoint x="1150" y="205" />
              <mxPoint x="1150" y="-440" />
              <mxPoint x="272" y="-440" />
            </Array>
          </mxGeometry>
        </mxCell>
        <mxCell id="0DTxfH7YHv4nTH2xqImf-172" value="Offers" style="shape=rhombus;perimeter=rhombusPerimeter;whiteSpace=wrap;html=1;align=center;rounded=0;shadow=0;glass=0;sketch=0;strokeWidth=2;gradientColor=none;" parent="1" vertex="1">
          <mxGeometry x="1040" y="190" width="120" height="60" as="geometry" />
        </mxCell>
        <mxCell id="0DTxfH7YHv4nTH2xqImf-190" style="edgeStyle=orthogonalEdgeStyle;rounded=0;orthogonalLoop=1;jettySize=auto;html=1;entryX=0.049;entryY=0.999;entryDx=0;entryDy=0;endArrow=open;endFill=0;exitX=0.5;exitY=0;exitDx=0;exitDy=0;entryPerimeter=0;" parent="1" source="0DTxfH7YHv4nTH2xqImf-191" target="0DTxfH7YHv4nTH2xqImf-4" edge="1">
          <mxGeometry relative="1" as="geometry">
            <mxPoint x="-346.5" y="171.25" as="targetPoint" />
          </mxGeometry>
        </mxCell>
        <mxCell id="0DTxfH7YHv4nTH2xqImf-191" value="Create" style="shape=rhombus;perimeter=rhombusPerimeter;whiteSpace=wrap;html=1;align=center;rounded=0;shadow=0;glass=0;sketch=0;strokeWidth=2;gradientColor=none;" parent="1" vertex="1">
          <mxGeometry x="-220" y="370" width="120" height="60" as="geometry" />
        </mxCell>
        <mxCell id="0DTxfH7YHv4nTH2xqImf-192" style="edgeStyle=orthogonalEdgeStyle;rounded=0;orthogonalLoop=1;jettySize=auto;html=1;entryX=0.5;entryY=1;entryDx=0;entryDy=0;endArrow=none;endFill=0;exitX=0.561;exitY=-0.011;exitDx=0;exitDy=0;exitPerimeter=0;" parent="1" source="0DTxfH7YHv4nTH2xqImf-197" target="0DTxfH7YHv4nTH2xqImf-191" edge="1">
          <mxGeometry relative="1" as="geometry">
            <mxPoint x="-126.5" y="808.75" as="sourcePoint" />
          </mxGeometry>
        </mxCell>
        <mxCell id="0DTxfH7YHv4nTH2xqImf-193" value="BU DA WEAK&amp;nbsp; MI" style="edgeLabel;html=1;align=center;verticalAlign=middle;resizable=0;points=[];" parent="0DTxfH7YHv4nTH2xqImf-192" vertex="1" connectable="0">
          <mxGeometry x="0.2493" y="-1" relative="1" as="geometry">
            <mxPoint as="offset" />
          </mxGeometry>
        </mxCell>
        <mxCell id="0DTxfH7YHv4nTH2xqImf-198" style="edgeStyle=orthogonalEdgeStyle;rounded=0;orthogonalLoop=1;jettySize=auto;html=1;entryX=0.178;entryY=1.019;entryDx=0;entryDy=0;entryPerimeter=0;endArrow=open;endFill=0;exitX=1;exitY=0.5;exitDx=0;exitDy=0;" parent="1" source="0DTxfH7YHv4nTH2xqImf-202" target="0DTxfH7YHv4nTH2xqImf-17" edge="1">
          <mxGeometry relative="1" as="geometry">
            <mxPoint x="189" y="605" as="sourcePoint" />
          </mxGeometry>
        </mxCell>
        <mxCell id="0DTxfH7YHv4nTH2xqImf-199" value="" style="shape=rhombus;perimeter=rhombusPerimeter;whiteSpace=wrap;html=1;align=center;rounded=0;sketch=0;" parent="1" vertex="1">
          <mxGeometry x="285" y="615" width="130" height="65" as="geometry" />
        </mxCell>
        <mxCell id="0DTxfH7YHv4nTH2xqImf-200" value="Has" style="shape=rhombus;perimeter=rhombusPerimeter;whiteSpace=wrap;html=1;align=center;rounded=0;sketch=0;" parent="1" vertex="1">
          <mxGeometry x="290" y="617.5" width="120" height="60" as="geometry" />
        </mxCell>
        <mxCell id="0DTxfH7YHv4nTH2xqImf-201" value="" style="shape=rhombus;perimeter=rhombusPerimeter;whiteSpace=wrap;html=1;align=center;rounded=0;sketch=0;" parent="1" vertex="1">
          <mxGeometry x="65" y="577.5" width="130" height="65" as="geometry" />
        </mxCell>
        <mxCell id="0DTxfH7YHv4nTH2xqImf-203" style="edgeStyle=orthogonalEdgeStyle;rounded=0;orthogonalLoop=1;jettySize=auto;html=1;entryX=1;entryY=0.5;entryDx=0;entryDy=0;endArrow=open;endFill=0;shape=link;" parent="1" source="0DTxfH7YHv4nTH2xqImf-202" target="0DTxfH7YHv4nTH2xqImf-197" edge="1">
          <mxGeometry relative="1" as="geometry" />
        </mxCell>
        <mxCell id="0DTxfH7YHv4nTH2xqImf-202" value="Has" style="shape=rhombus;perimeter=rhombusPerimeter;whiteSpace=wrap;html=1;align=center;rounded=0;sketch=0;" parent="1" vertex="1">
          <mxGeometry x="70" y="580" width="120" height="60" as="geometry" />
        </mxCell>
        <mxCell id="0DTxfH7YHv4nTH2xqImf-206" style="edgeStyle=orthogonalEdgeStyle;rounded=0;orthogonalLoop=1;jettySize=auto;html=1;entryX=0.5;entryY=1;entryDx=0;entryDy=0;endArrow=open;endFill=0;" parent="1" source="0DTxfH7YHv4nTH2xqImf-205" target="0DTxfH7YHv4nTH2xqImf-2" edge="1">
          <mxGeometry relative="1" as="geometry">
            <Array as="points">
              <mxPoint x="620" y="302" />
              <mxPoint x="540" y="302" />
            </Array>
          </mxGeometry>
        </mxCell>
        <mxCell id="0DTxfH7YHv4nTH2xqImf-205" value="Has" style="shape=rhombus;perimeter=rhombusPerimeter;whiteSpace=wrap;html=1;align=center;rounded=0;shadow=0;glass=0;sketch=0;strokeWidth=2;gradientColor=none;" parent="1" vertex="1">
          <mxGeometry x="560" y="424" width="120" height="60" as="geometry" />
        </mxCell>
        <mxCell id="0DTxfH7YHv4nTH2xqImf-208" style="edgeStyle=orthogonalEdgeStyle;rounded=0;orthogonalLoop=1;jettySize=auto;html=1;entryX=0.395;entryY=-0.001;entryDx=0;entryDy=0;entryPerimeter=0;endArrow=open;endFill=0;exitX=1;exitY=0.5;exitDx=0;exitDy=0;" parent="1" source="0DTxfH7YHv4nTH2xqImf-207" target="0DTxfH7YHv4nTH2xqImf-102" edge="1">
          <mxGeometry relative="1" as="geometry">
            <Array as="points">
              <mxPoint x="220" y="-80" />
              <mxPoint x="271" y="-80" />
            </Array>
          </mxGeometry>
        </mxCell>
        <mxCell id="0DTxfH7YHv4nTH2xqImf-209" style="edgeStyle=orthogonalEdgeStyle;rounded=0;orthogonalLoop=1;jettySize=auto;html=1;entryX=1;entryY=0.25;entryDx=0;entryDy=0;endArrow=none;endFill=0;shape=link;" parent="1" source="0DTxfH7YHv4nTH2xqImf-207" target="0DTxfH7YHv4nTH2xqImf-40" edge="1">
          <mxGeometry relative="1" as="geometry" />
        </mxCell>
        <mxCell id="0DTxfH7YHv4nTH2xqImf-207" value="Has" style="shape=rhombus;perimeter=rhombusPerimeter;whiteSpace=wrap;html=1;align=center;rounded=0;shadow=0;glass=0;sketch=0;strokeWidth=2;gradientColor=none;" parent="1" vertex="1">
          <mxGeometry x="100" y="-360" width="120" height="60" as="geometry" />
        </mxCell>
        <mxCell id="0DTxfH7YHv4nTH2xqImf-211" value="" style="shape=rhombus;perimeter=rhombusPerimeter;whiteSpace=wrap;html=1;align=center;rounded=0;sketch=0;" parent="1" vertex="1">
          <mxGeometry x="-541" y="190" width="136" height="61.25" as="geometry" />
        </mxCell>
        <mxCell id="0DTxfH7YHv4nTH2xqImf-213" style="edgeStyle=orthogonalEdgeStyle;rounded=0;orthogonalLoop=1;jettySize=auto;html=1;endArrow=open;endFill=0;" parent="1" source="0DTxfH7YHv4nTH2xqImf-215" edge="1">
          <mxGeometry relative="1" as="geometry">
            <mxPoint x="50" y="150" as="targetPoint" />
            <Array as="points">
              <mxPoint x="-182" y="221" />
              <mxPoint x="-182" y="150" />
            </Array>
          </mxGeometry>
        </mxCell>
        <mxCell id="0DTxfH7YHv4nTH2xqImf-214" style="edgeStyle=orthogonalEdgeStyle;rounded=0;orthogonalLoop=1;jettySize=auto;html=1;endArrow=open;endFill=0;entryX=0.5;entryY=0;entryDx=0;entryDy=0;shape=link;" parent="1" source="0DTxfH7YHv4nTH2xqImf-215" edge="1">
          <mxGeometry relative="1" as="geometry">
            <mxPoint x="-474" y="291" as="targetPoint" />
            <Array as="points">
              <mxPoint x="-474" y="271" />
              <mxPoint x="-474" y="271" />
            </Array>
          </mxGeometry>
        </mxCell>
        <mxCell id="0DTxfH7YHv4nTH2xqImf-215" value="Has a" style="shape=rhombus;perimeter=rhombusPerimeter;whiteSpace=wrap;html=1;align=center;rounded=0;sketch=0;" parent="1" vertex="1">
          <mxGeometry x="-534" y="191" width="120" height="60" as="geometry" />
        </mxCell>
        <mxCell id="0DTxfH7YHv4nTH2xqImf-217" style="edgeStyle=orthogonalEdgeStyle;rounded=0;orthogonalLoop=1;jettySize=auto;html=1;entryX=1;entryY=0.5;entryDx=0;entryDy=0;endArrow=none;endFill=0;" parent="1" source="0DTxfH7YHv4nTH2xqImf-216" target="0DTxfH7YHv4nTH2xqImf-212" edge="1">
          <mxGeometry relative="1" as="geometry" />
        </mxCell>
        <mxCell id="0DTxfH7YHv4nTH2xqImf-219" style="edgeStyle=orthogonalEdgeStyle;rounded=0;orthogonalLoop=1;jettySize=auto;html=1;entryX=0;entryY=0.75;entryDx=0;entryDy=0;endArrow=none;endFill=0;exitX=0.5;exitY=0;exitDx=0;exitDy=0;" parent="1" source="0DTxfH7YHv4nTH2xqImf-216" target="0DTxfH7YHv4nTH2xqImf-86" edge="1">
          <mxGeometry relative="1" as="geometry">
            <Array as="points">
              <mxPoint x="-270" y="190" />
              <mxPoint x="370" y="190" />
              <mxPoint x="370" y="155" />
            </Array>
          </mxGeometry>
        </mxCell>
        <mxCell id="0DTxfH7YHv4nTH2xqImf-216" value="Contain" style="shape=rhombus;perimeter=rhombusPerimeter;whiteSpace=wrap;html=1;align=center;rounded=0;sketch=0;" parent="1" vertex="1">
          <mxGeometry x="-330" y="269" width="120" height="60" as="geometry" />
        </mxCell>
      </root>
    </mxGraphModel>
  </diagram>
</mxfile>
